:FULLY-SPECIFIED
:FORCE-ALL-JOINTS-BE-3DOF
:DEGREES
1631
root -9.5505 15.268 21.2995 -18.2685 -85.4007 17.6543
lfemur -18.2363 0.549636 -16.8596
ltibia 55.6608 -0 0
lfoot -24.5802 20.4469 -0.1609
ltoes -36.2276 0 0
rfemur -50.5516 -6.73366 11.0661
rtibia 47.4665 -0 0
rfoot -4.95159 -7.17488 0.460981
rtoes -2.35029 0 0
lowerback 17.641 -1.03219 -7.9553
upperback 0.0460296 -2.68563 4.1882
thorax -9.31872 -0.838247 9.90654
lowerneck 1.76293 -11.6225 -11.4682
upperneck 0.794609 -16.0914 11.2085
head 2.34867 -8.11725 5.02679
lclavicle 1.38424e-15 -2.53572e-14 6.84322e-30
lhumerus -12.0101 -43.3656 91.7082
lradius 76.0289 -0 0
lwrist 14.5091 0 0
lhand -20.1694 41.5464 -0.00667149
lfingers 7.12502 -0 0
lthumb 6.17293 71.3189 -0.0190529
rclavicle 1.38424e-15 -2.53572e-14 6.84322e-30
rhumerus 24.3319 25.5473 -47.4296
rradius 112.349 -0 0
rwrist -35.4313 0 0
rhand 42.327 -26.2362 1.03037
rfingers 7.12502 -0 0
rthumb 58.6201 -9.74405 6.80015
1632
root -9.54975 15.2638 21.322 -17.7455 -85.486 17.1885
lfemur -18.343 0.535703 -16.8842
ltibia 55.794 -0 0
lfoot -24.6415 20.5267 -0.1609
ltoes -36.226 0 0
rfemur -50.5705 -6.75868 11.1374
rtibia 47.3533 -0 0
rfoot -5.02048 -7.37854 0.460981
rtoes -2.23426 0 0
lowerback 17.6553 -1.03666 -7.94214
upperback 0.067258 -2.68928 4.20056
thorax -9.30215 -0.842639 9.91366
lowerneck 1.85724 -11.7035 -11.5314
upperneck 0.683692 -16.2091 11.3503
head 2.32885 -8.17902 5.07665
lclavicle 1.74666e-15 -2.59293e-14 6.84322e-30
lhumerus -12.1133 -43.4562 91.6879
lradius 76.2924 -0 0
lwrist 14.8186 0 0
lhand -20.0522 41.5446 -0.00667149
lfingers 7.12502 -0 0
lthumb 6.28598 71.3138 -0.0190529
rclavicle 1.74666e-15 -2.59293e-14 6.84322e-30
rhumerus 24.8121 25.5897 -46.9758
rradius 112.234 -0 0
rwrist -35.3219 0 0
rhand 41.9278 -26.3157 1.03037
rfingers 7.12502 -0 0
rthumb 58.326 -10.4953 6.80015
1633
root -9.54899 15.2596 21.3446 -17.2034 -85.5709 16.7037
lfemur -18.4496 0.521725 -16.9088
ltibia 55.9271 -0 0
lfoot -24.7027 20.6064 -0.160815
ltoes -36.2243 0 0
rfemur -50.5895 -6.78368 11.2088
rtibia 47.2401 -0 0
rfoot -5.08937 -7.5822 0.460737
rtoes -2.11822 0 0
lowerback 17.6696 -1.04113 -7.92897
upperback 0.0884856 -2.69293 4.21292
thorax -9.28559 -0.847034 9.92079
lowerneck 1.95167 -11.7844 -11.5948
upperneck 0.572406 -16.3264 11.4924
head 2.30897 -8.24078 5.12654
lclavicle 2.10908e-15 -2.65014e-14 6.8396e-30
lhumerus -12.2167 -43.5468 91.6678
lradius 76.556 -0 0
lwrist 15.1281 0 0
lhand -19.9351 41.5429 -0.00666795
lfingers 7.12502 -0 0
lthumb 6.39904 71.3087 -0.0190428
rclavicle 2.10908e-15 -2.65014e-14 6.8396e-30
rhumerus 25.2928 25.6287 -46.5214
rradius 112.119 -0 0
rwrist -35.2126 0 0
rhand 41.5286 -26.3952 1.02982
rfingers 7.12502 -0 0
rthumb 58.0321 -11.2466 6.79632
1634
root -9.54824 15.2555 21.3672 -16.6413 -85.6555 16.1989
lfemur -18.5562 0.507702 -16.9334
ltibia 56.0603 -0 0
lfoot -24.7639 20.6861 -0.160645
ltoes -36.2227 0 0
rfemur -50.6084 -6.80865 11.2801
rtibia 47.1269 -0 0
rfoot -5.15825 -7.78586 0.460247
rtoes -2.00218 0 0
lowerback 17.6839 -1.0456 -7.9158
upperback 0.109713 -2.69659 4.22528
thorax -9.26902 -0.851431 9.92791
lowerneck 2.04622 -11.8652 -11.6583
upperneck 0.46075 -16.4435 11.6349
head 2.28904 -8.30252 5.17645
lclavicle 2.4715e-15 -2.70735e-14 6.83236e-30
lhumerus -12.3202 -43.6374 91.6479
lradius 76.8196 -0 0
lwrist 15.4377 0 0
lhand -19.818 41.5412 -0.00666089
lfingers 7.12502 -0 0
lthumb 6.51209 71.3036 -0.0190226
rclavicle 2.4715e-15 -2.70735e-14 6.83236e-30
rhumerus 25.7739 25.6643 -46.0665
rradius 112.003 -0 0
rwrist -35.1033 0 0
rhand 41.1294 -26.4746 1.02871
rfingers 7.12502 -0 0
rthumb 57.7382 -11.9979 6.78867
1635
root -9.54748 15.2513 21.3898 -16.0581 -85.7397 15.673
lfemur -18.6628 0.493632 -16.9579
ltibia 56.1935 -0 0
lfoot -24.8251 20.7659 -0.160389
ltoes -36.2211 0 0
rfemur -50.6275 -6.8336 11.3515
rtibia 47.0137 -0 0
rfoot -5.22714 -7.98952 0.459512
rtoes -1.88614 0 0
lowerback 17.6982 -1.05008 -7.90264
upperback 0.130939 -2.70025 4.23763
thorax -9.25245 -0.85583 9.93503
lowerneck 2.1409 -11.9459 -11.722
upperneck 0.348723 -16.5603 11.7776
head 2.26905 -8.36424 5.22639
lclavicle 2.83392e-15 -2.76456e-14 6.82151e-30
lhumerus -12.4238 -43.7281 91.6282
lradius 77.0832 -0 0
lwrist 15.7472 0 0
lhand -19.7009 41.5395 -0.00665029
lfingers 7.12502 -0 0
lthumb 6.62515 71.2985 -0.0189924
rclavicle 2.83392e-15 -2.76456e-14 6.82151e-30
rhumerus 26.2555 25.6964 -45.6112
rradius 111.888 -0 0
rwrist -34.9939 0 0
rhand 40.7301 -26.5541 1.02705
rfingers 7.12502 -0 0
rthumb 57.4444 -12.7491 6.77719
1636
root -9.54672 15.2471 21.4123 -15.4525 -85.8235 15.1247
lfemur -18.7694 0.479517 -16.9824
ltibia 56.3266 -0 0
lfoot -24.8863 20.8456 -0.160049
ltoes -36.2194 0 0
rfemur -50.6465 -6.85853 11.4228
rtibia 46.9005 -0 0
rfoot -5.29602 -8.19318 0.458533
rtoes -1.7701 0 0
lowerback 17.7125 -1.05456 -7.88947
upperback 0.152164 -2.70391 4.24999
thorax -9.23589 -0.860231 9.94215
lowerneck 2.23569 -12.0265 -11.7858
upperneck 0.236324 -16.6769 11.9207
head 2.249 -8.42595 5.27637
lclavicle 3.19633e-15 -2.82177e-14 6.80703e-30
lhumerus -12.5275 -43.8187 91.6088
lradius 77.3468 -0 0
lwrist 16.0567 0 0
lhand -19.5837 41.5377 -0.00663616
lfingers 7.12502 -0 0
lthumb 6.7382 71.2933 -0.018952
rclavicle 3.19633e-15 -2.82177e-14 6.80703e-30
rhumerus 26.7375 25.725 -45.1555
rradius 111.773 -0 0
rwrist -34.8846 0 0
rhand 40.3309 -26.6335 1.02483
rfingers 7.12502 -0 0
rthumb 57.1508 -13.5002 6.76188
1637
root -9.54597 15.243 21.4349 -14.8235 -85.9069 14.5529
lfemur -18.876 0.465356 -17.0069
ltibia 56.4598 -0 0
lfoot -24.9475 20.9253 -0.159623
ltoes -36.2178 0 0
rfemur -50.6656 -6.88343 11.4942
rtibia 46.7873 -0 0
rfoot -5.3649 -8.39684 0.457309
rtoes -1.65407 0 0
lowerback 17.7268 -1.05905 -7.87631
upperback 0.173389 -2.70759 4.26234
thorax -9.21932 -0.864634 9.94926
lowerneck 2.3306 -12.107 -11.8498
upperneck 0.123553 -16.7932 12.0641
head 2.2289 -8.48764 5.32637
lclavicle 3.55875e-15 -2.87898e-14 6.78894e-30
lhumerus -12.6313 -43.9094 91.5895
lradius 77.6104 -0 0
lwrist 16.3663 0 0
lhand -19.4666 41.536 -0.0066185
lfingers 7.12502 -0 0
lthumb 6.85126 71.2882 -0.0189016
rclavicle 3.55875e-15 -2.87898e-14 6.78894e-30
rhumerus 27.2199 25.7502 -44.6995
rradius 111.657 -0 0
rwrist -34.7752 0 0
rhand 39.9317 -26.7129 1.02207
rfingers 7.12502 -0 0
rthumb 56.8575 -14.2511 6.74276
1638
root -9.54521 15.2388 21.4575 -14.1695 -85.9897 13.9562
lfemur -18.9826 0.45115 -17.0314
ltibia 56.5929 -0 0
lfoot -25.0087 21.0051 -0.159112
ltoes -36.2161 0 0
rfemur -50.6847 -6.90831 11.5656
rtibia 46.6741 -0 0
rfoot -5.43377 -8.6005 0.45584
rtoes -1.53803 0 0
lowerback 17.7411 -1.06354 -7.86315
upperback 0.194613 -2.71126 4.27469
thorax -9.20276 -0.869039 9.95638
lowerneck 2.42563 -12.1874 -11.914
upperneck 0.0104081 -16.9092 12.2079
head 2.20874 -8.54931 5.37641
lclavicle 3.92117e-15 -2.93619e-14 6.76722e-30
lhumerus -12.7352 -44.0001 91.5704
lradius 77.874 -0 0
lwrist 16.6758 0 0
lhand -19.3495 41.5343 -0.0065973
lfingers 7.12502 -0 0
lthumb 6.96431 71.2831 -0.0188411
rclavicle 3.92117e-15 -2.93619e-14 6.76722e-30
rhumerus 27.7025 25.7719 -44.2431
rradius 111.542 -0 0
rwrist -34.6659 0 0
rhand 39.5325 -26.7923 1.01875
rfingers 7.12502 -0 0
rthumb 56.5644 -15.002 6.71982
1639
root -9.54446 15.2346 21.4801 -13.4893 -86.0721 13.3333
lfemur -19.0892 0.436898 -17.0559
ltibia 56.7261 -0 0
lfoot -25.0699 21.0848 -0.158516
ltoes -36.2145 0 0
rfemur -50.7039 -6.93316 11.637
rtibia 46.5609 -0 0
rfoot -5.50264 -8.80415 0.454126
rtoes -1.42199 0 0
lowerback 17.7554 -1.06803 -7.84998
upperback 0.215836 -2.71494 4.28704
thorax -9.1862 -0.873447 9.9635
lowerneck 2.52078 -12.2677 -11.9783
upperneck -0.10311 -17.0249 12.352
head 2.18852 -8.61096 5.42647
lclavicle 4.28359e-15 -2.99341e-14 6.74189e-30
lhumerus -12.8393 -44.0909 91.5515
lradius 78.1376 -0 0
lwrist 16.9853 0 0
lhand -19.2324 41.5325 -0.00657257
lfingers 7.12502 -0 0
lthumb 7.07737 71.278 -0.0187704
rclavicle 4.28359e-15 -2.99341e-14 6.74189e-30
rhumerus 28.1854 25.7902 -43.7865
rradius 111.427 -0 0
rwrist -34.5566 0 0
rhand 39.1333 -26.8717 1.01487
rfingers 7.12502 -0 0
rthumb 56.2717 -15.7526 6.69307
1640
root -9.5437 15.2304 21.5026 -12.7812 -86.154 12.6825
lfemur -19.1958 0.422601 -17.0803
ltibia 56.8592 -0 0
lfoot -25.1311 21.1645 -0.157834
ltoes -36.2129 0 0
rfemur -50.7231 -6.958 11.7084
rtibia 46.4477 -0 0
rfoot -5.5715 -9.0078 0.452167
rtoes -1.30595 0 0
lowerback 17.7697 -1.07252 -7.83682
upperback 0.237059 -2.71862 4.29939
thorax -9.16963 -0.877856 9.97061
lowerneck 2.61605 -12.3479 -12.0427
upperneck -0.217003 -17.1404 12.4964
head 2.16824 -8.6726 5.47656
lclavicle 4.64601e-15 -3.05062e-14 6.71294e-30
lhumerus -12.9434 -44.1817 91.5328
lradius 78.4012 -0 0
lwrist 17.2949 0 0
lhand -19.1152 41.5308 -0.00654431
lfingers 7.12502 -0 0
lthumb 7.19042 71.2729 -0.0186897
rclavicle 4.64601e-15 -3.05062e-14 6.71294e-30
rhumerus 28.6685 25.805 -43.3296
rradius 111.311 -0 0
rwrist -34.4472 0 0
rhand 38.7341 -26.951 1.01045
rfingers 7.12502 -0 0
rthumb 55.9794 -16.5031 6.66251
1641
root -9.54295 15.2263 21.5252 -12.0437 -86.2353 12.0022
lfemur -19.3024 0.408258 -17.1047
ltibia 56.9924 -0 0
lfoot -25.1923 21.2443 -0.157068
ltoes -36.2112 0 0
rfemur -50.7423 -6.9828 11.7799
rtibia 46.3345 -0 0
rfoot -5.64035 -9.21145 0.449964
rtoes -1.18992 0 0
lowerback 17.784 -1.07702 -7.82367
upperback 0.25828 -2.72231 4.31174
thorax -9.15307 -0.882267 9.97772
lowerneck 2.71145 -12.428 -12.1073
upperneck -0.331271 -17.2556 12.6411
head 2.1479 -8.73421 5.52669
lclavicle 5.00843e-15 -3.10783e-14 6.68037e-30
lhumerus -13.0477 -44.2724 91.5143
lradius 78.6648 -0 0
lwrist 17.6044 0 0
lhand -18.9981 41.5291 -0.00651252
lfingers 7.12502 -0 0
lthumb 7.30348 71.2678 -0.018599
rclavicle 5.00843e-15 -3.10783e-14 6.68037e-30
rhumerus 29.1518 25.8163 -42.8726
rradius 111.196 -0 0
rwrist -34.3379 0 0
rhand 38.3349 -27.0304 1.00547
rfingers 7.12502 -0 0
rthumb 55.6875 -17.2534 6.62816
1642
root -9.54219 15.2221 21.5478 -11.2751 -86.316 11.2908
lfemur -19.4089 0.39387 -17.129
ltibia 57.1256 -0 0
lfoot -25.2535 21.324 -0.156216
ltoes -36.2096 0 0
rfemur -50.7616 -7.00759 11.8513
rtibia 46.2213 -0 0
rfoot -5.7092 -9.4151 0.447516
rtoes -1.07388 0 0
lowerback 17.7983 -1.08152 -7.81051
upperback 0.279501 -2.726 4.32408
thorax -9.13651 -0.886681 9.98483
lowerneck 2.80697 -12.5079 -12.1721
upperneck -0.445916 -17.3705 12.7861
head 2.12751 -8.79581 5.57684
lclavicle 5.37085e-15 -3.16504e-14 6.64418e-30
lhumerus -13.1521 -44.3633 91.496
lradius 78.9284 -0 0
lwrist 17.9139 0 0
lhand -18.881 41.5274 -0.0064772
lfingers 7.12502 -0 0
lthumb 7.41653 71.2627 -0.0184981
rclavicle 5.37085e-15 -3.16504e-14 6.64418e-30
rhumerus 29.6352 25.8242 -42.4154
rradius 111.081 -0 0
rwrist -34.2286 0 0
rhand 37.9357 -27.1096 0.999935
rfingers 7.12502 -0 0
rthumb 55.3962 -18.0034 6.59001
1643
root -9.54143 15.2179 21.5704 -10.4735 -86.396 10.5465
lfemur -19.5155 0.379437 -17.1534
ltibia 57.2587 -0 0
lfoot -25.3146 21.4037 -0.155279
ltoes -36.208 0 0
rfemur -50.7808 -7.03235 11.9228
rtibia 46.1081 -0 0
rfoot -5.77803 -9.61874 0.444823
rtoes -0.95784 0 0
lowerback 17.8126 -1.08603 -7.79735
upperback 0.300721 -2.7297 4.33643
thorax -9.11995 -0.891096 9.99194
lowerneck 2.90261 -12.5878 -12.237
upperneck -0.560937 -17.4852 12.9315
head 2.10706 -8.8574 5.62703
lclavicle 5.73327e-15 -3.22225e-14 6.60438e-30
lhumerus -13.2567 -44.4541 91.4779
lradius 79.192 -0 0
lwrist 18.2234 0 0
lhand -18.7639 41.5256 -0.00643834
lfingers 7.12502 -0 0
lthumb 7.52959 71.2576 -0.0183871
rclavicle 5.73327e-15 -3.22225e-14 6.60438e-30
rhumerus 30.1187 25.8286 -41.9582
rradius 110.965 -0 0
rwrist -34.1192 0 0
rhand 37.5366 -27.1889 0.993851
rfingers 7.12502 -0 0
rthumb 55.1054 -18.7531 6.54807
